:version 1.10
:name ASF
:units
  mass 1
  length 1
  angle deg
:documentation
  ASF file generated by Kaydara
:root
  axis xyz
  order  tx ty tz rx ry rz
  position 0 0 0
  orientation 0 0 0
:bonedata
  begin
    id 1
    name RightUpLegDummy
    direction -0.718183 -0.695806 0.00816078
    length 4.904
    axis 0 0 0 xyz
  end
  begin
    id 2
    name RightUpLeg
    direction 3.53989e-006 -0.995788 0.0916897
    length 17.4976
    axis -3.49089 -0.000906621 0.000287158 xyz
    dof rx ry rz
  end
  begin
    id 3
    name RightLeg
    direction 0.00371093 -0.995096 -0.0988418
    length 16.5821
    axis 3.68512 0.0193738 -0.131023 xyz
    dof rx ry rz
  end
  begin
    id 4
    name RightFoot
    direction 0.000791514 -0.46099 0.887405
    length 3.77069
    axis 4.84075e-005 -0.120479 -0.188788 xyz
    dof rx ry rz
  end
  begin
    id 5
    name RightToes
    direction 0.00124746 -0.014064 0.9999
    length 3.85082
    axis 0.00048216 0.542163 -0.142577 xyz
    dof rx ry rz
  end
  begin
    id 6
    name SpineDummy
    direction 8.36599e-015 1 5.97571e-016
    length 4.6813
    axis 0 0 0 xyz
  end
  begin
    id 7
    name Spine
    direction -4.63632e-008 0.999988 0.00495137
    length 10.1015
    axis -0.00138897 0.000121419 3.25764e-006 xyz
    dof rx ry rz
  end
  begin
    id 8
    name Spine1
    direction 0 0 0
    length 0
    axis -0.00138896 0.000121452 2.39764e-006 xyz
    dof rx ry rz
  end
  begin
    id 9
    name HEadDummy
    direction -3.91456e-008 0.999999 0.00127422
    length 3.43865
    axis -0.00138896 0.000121452 2.39764e-006 xyz
  end
  begin
    id 10
    name HEad
    direction -0.0222688 0.980941 0.193023
    length 5.12695
    axis -0.00138895 0.000121452 2.39764e-006 xyz
    dof rx ry rz
  end
  begin
    id 11
    name LeftShoulder1Dummy
    direction 0.998891 -0.0402508 -0.0244456
    length 3.5433
    axis -0.00138896 0.000121452 2.39764e-006 xyz
  end
  begin
    id 12
    name LeftShoulder1
    direction 0.99951 -0.000327743 0.0313091
    length 4.05031
    axis -0.00138896 0.000121452 2.39764e-006 xyz
    dof rx ry rz
  end
  begin
    id 13
    name LeftArm
    direction 0.998561 -0.00100054 -0.0536182
    length 10.3537
    axis -23.1894 0.134784 0.96751 xyz
    dof rx ry rz
  end
  begin
    id 14
    name LeftForeArm
    direction 0.998903 0.00866434 0.046012
    length 8.70632
    axis -9.91835 -0.06569 -0.177792 xyz
    dof rx ry rz
  end
  begin
    id 15
    name LeftHand
    direction 0.992938 -0.0411636 0.11126
    length 5.32135
    axis -0.00960227 -0.00340091 0.185174 xyz
    dof rx ry rz
  end
  begin
    id 16
    name RightShoulderDummy
    direction -0.998891 -0.0402509 -0.0244414
    length 3.5433
    axis -0.00138896 0.000121452 2.39764e-006 xyz
  end
  begin
    id 17
    name RightShoulder
    direction -0.99951 -0.000327827 0.0313133
    length 4.05031
    axis 0.215806 0.000203644 -0.00680151 xyz
    dof rx ry rz
  end
  begin
    id 18
    name RightArm
    direction -0.998573 -0.000999583 -0.053403
    length 10.3947
    axis -23.2009 -0.134239 -0.9641 xyz
    dof rx ry rz
  end
  begin
    id 19
    name RightForeArm
    direction -0.998898 0.00868026 0.0461306
    length 8.68355
    axis -9.92322 0.0658061 0.178869 xyz
    dof rx ry rz
  end
  begin
    id 20
    name RightHand
    direction -0.992843 -0.0414603 0.112003
    length 5.28593
    axis -0.00960634 0.00330671 -0.185226 xyz
    dof rx ry rz
  end
  begin
    id 21
    name LeftUpLegDummy
    direction 0.718183 -0.695806 0.00816078
    length 4.904
    axis 0 0 0 xyz
  end
  begin
    id 22
    name LeftUpLeg
    direction -6.8115e-006 -0.995793 0.0916336
    length 17.4976
    axis -3.48766 0.00143441 -0.000523914 xyz
    dof rx ry rz
  end
  begin
    id 23
    name LeftLeg
    direction -0.00601357 -0.995091 -0.0987824
    length 16.5821
    axis 3.68177 -0.00654038 -0.00028478 xyz
    dof rx ry rz
  end
  begin
    id 24
    name LeftFoot
    direction -0.00417578 -0.460984 0.887399
    length 3.77069
    axis 1.87232e-006 4.66002e-005 -8.1837e-006 xyz
    dof rx ry rz
  end
  begin
    id 25
    name LeftToes
    direction 0.00818058 -0.00485161 0.999955
    length 3.85048
    axis 1.06246e-005 4.65855e-005 -8.18502e-006 xyz
    dof rx ry rz
  end
:hierarchy
  begin
    root RightUpLegDummy SpineDummy LeftUpLegDummy
    RightUpLegDummy RightUpLeg
    RightUpLeg RightLeg
    RightLeg RightFoot
    RightFoot RightToes
    SpineDummy Spine
    Spine Spine1
    Spine1 HEadDummy LeftShoulder1Dummy RightShoulderDummy
    HEadDummy HEad
    LeftShoulder1Dummy LeftShoulder1
    LeftShoulder1 LeftArm
    LeftArm LeftForeArm
    LeftForeArm LeftHand
    RightShoulderDummy RightShoulder
    RightShoulder RightArm
    RightArm RightForeArm
    RightForeArm RightHand
    LeftUpLegDummy LeftUpLeg
    LeftUpLeg LeftLeg
    LeftLeg LeftFoot
    LeftFoot LeftToes
  end

:SAMPLES-PER-SECOND 24
:FULLY-SPECIFIED
:DEGREES
24
root  -2.60538 40.4781 22.2423 172.295 80.5614 174.863
RightUpLeg  5.93385 -21.6545 -19.9088
RightLeg  18.9971 8.28794 2.95926
RightFoot  3.48147 -2.47153 19.024
RightToes  -1.74623e-010 0 -2.59999e-017
Spine  0.451981 3.3897 4.05842
Spine1  12.2696 4.31823 -3.29517
HEad  -25.3245 57.7038 -30.2099
LeftShoulder1  1.75397 -2.40997 -23.3965
LeftArm  7.87999 22.4502 -39.1545
LeftForeArm  18.0986 -48.9788 -11.5475
LeftHand  -0.433311 2.34279 16.3432
RightShoulder  3.62984 5.98183 32.3859
RightArm  1.24737 -27.391 35.3162
RightForeArm  141.114 70.5311 148.589
RightHand  0.164983 -7.91993 -8.97478
LeftUpLeg  -6.27112 15.9641 14.8254
LeftLeg  21.1442 -0.961243 -0.0766207
LeftFoot  14.1299 3.1057 -14.07
LeftToes  -6.27559e-011 -2.10356e-011 8.24929e-012
25
root  -2.52392 40.745 22.2664 169.252 81.7251 171.674
RightUpLeg  5.25684 -24.5922 -20.9745
RightLeg  19.3643 5.14698 1.80602
RightFoot  7.06173 -3.21332 19.974
RightToes  -1.74623e-010 0 -2.59999e-017
Spine  -0.0952346 3.67617 5.00644
Spine1  14.4098 5.17398 -4.82129
HEad  -28.0627 56.6086 -31.4504
LeftShoulder1  1.62345 -2.2299 -21.9742
LeftArm  6.35076 22.1784 -40.4858
LeftForeArm  20.2603 -51.3201 -12.4539
LeftHand  -0.417032 2.71686 17.9433
RightShoulder  3.463 5.86273 31.0779
RightArm  3.74768 -28.421 35.1802
RightForeArm  148.312 68.3459 152.786
RightHand  -0.0414153 -4.82706 -2.28411
LeftUpLeg  -6.35581 15.6879 15.1861
LeftLeg  18.0236 -0.753493 -0.243964
LeftFoot  13.9982 2.83956 -12.9623
LeftToes  -6.27559e-011 -2.10356e-011 8.24929e-012
26
root  -2.49589 40.5648 22.3436 167.208 82.0752 168.901
RightUpLeg  5.07514 -28.7646 -22.184
RightLeg  19.3467 2.63783 0.807463
RightFoot  7.20895 -3.15591 19.4354
RightToes  -1.74623e-010 0 -2.59999e-017
Spine  0.536073 3.63595 5.22318
Spine1  13.3708 5.40123 -6.01461
HEad  -26.0173 55.966 -29.3187
LeftShoulder1  1.60059 -2.29118 -21.2363
LeftArm  6.78863 21.3022 -39.7854
LeftForeArm  19.4855 -53.4457 -13.6154
LeftHand  -0.286465 3.72662 19.5251
RightShoulder  3.23271 5.68652 29.2522
RightArm  6.05163 -28.4308 34.7667
RightForeArm  150.715 67.4543 154.192
RightHand  -0.0358097 -4.45476 -1.63614
LeftUpLeg  -6.26981 12.1051 16.3681
LeftLeg  10.135 5.35254 -0.646653
LeftFoot  11.4867 2.28894 -11.6572
LeftToes  -6.27559e-011 -2.10356e-011 8.24929e-012
27
root  -2.6522 39.5889 22.4655 166.689 80.9518 166.948
RightUpLeg  2.38465 -30.4707 -22.7926
RightLeg  24.0849 2.79533 1.11877
RightFoot  -0.233554 -1.96038 20.0258
RightToes  -1.74623e-010 0 -2.59999e-017
Spine  2.16331 3.00381 4.53301
Spine1  10.3768 4.77833 -6.54717
HEad  -22.6655 53.9262 -25.4772
LeftShoulder1  1.72543 -2.63216 -21.7654
LeftArm  7.21766 19.1521 -36.5841
LeftForeArm  20.3878 -56.5649 -15.3874
LeftHand  -0.193168 4.28546 19.5238
RightShoulder  3.17067 5.62242 28.8086
RightArm  6.45325 -27.0632 32.7358
RightForeArm  149.569 67.4722 154.064
RightHand  -0.0304581 -4.7449 -2.20206
LeftUpLeg  -11.071 10.6355 16.6825
LeftLeg  8.78969 6.73788 -0.0870859
LeftFoot  13.9911 2.01754 -9.34965
LeftToes  -6.27559e-011 -2.10356e-011 8.24929e-012
28
root  -2.91341 37.8653 22.4741 159.054 81.3079 158.072
RightUpLeg  -3.0496 -29.8947 -24.2732
RightLeg  34.0889 5.90836 4.04465
RightFoot  -12.2263 0.0736463 20.1785
RightToes  -1.74623e-010 0 -2.59999e-017
Spine  2.692 3.17997 4.18557
Spine1  11.0099 5.58868 -8.68957
HEad  -21.1545 47.3632 -20.1748
LeftShoulder1  1.78629 -2.9113 -21.4793
LeftArm  6.28993 13.6181 -35.2774
LeftForeArm  23.1697 -59.9979 -17.5828
LeftHand  -0.0622238 5.07602 20.3855
RightShoulder  3.20863 5.59356 29.3496
RightArm  2.80258 -22.716 30.3347
RightForeArm  141.678 70.5072 148.708
RightHand  -0.031827 -4.1065 -0.914018
LeftUpLeg  -17.6169 10.6476 16.6931
LeftLeg  17.2376 0.848393 0.581084
LeftFoot  12.3432 2.55587 -12.5122
LeftToes  -6.27559e-011 -2.10356e-011 8.24929e-012
29
root  -3.12001 36.2047 22.0561 118.348 84.8412 117.142
RightUpLeg  -10.1171 -25.7547 -25.7586
RightLeg  43.6776 8.25503 8.04633
RightFoot  -19.4476 1.29048 19.8719
RightToes  -1.74623e-010 0 -2.59999e-017
Spine  3.12615 4.57776 5.33125
Spine1  13.1718 8.18096 -11.5994
HEad  -18.3789 36.6398 -12.299
LeftShoulder1  1.72869 -2.89073 -20.6141
LeftArm  4.54165 7.64194 -36.692
LeftForeArm  27.5034 -63.5653 -20.3449
LeftHand  0.161497 6.29705 21.4921
RightShoulder  3.29469 5.67753 29.9769
RightArm  -2.2835 -15.1913 28.4865
RightForeArm  112.677 77.9833 119.005
RightHand  -0.0449126 -4.34793 -2.6917
LeftUpLeg  -20.0633 8.88339 18.9916
LeftLeg  28.2572 -2.52582 -1.10018
LeftFoot  2.68982 2.636 -21.4416
LeftToes  -6.27559e-011 -2.10356e-011 8.24929e-012
30
root  -3.19199 35.1226 21.0978 40.8116 82.0084 40.3927
RightUpLeg  -16.8741 -19.2272 -27.7037
RightLeg  49.4959 8.84324 10.6114
RightFoot  -21.219 1.64643 20.5219
RightToes  -1.74623e-010 0 -2.59999e-017
Spine  4.86863 5.57993 5.27406
Spine1  13.2331 9.65573 -12.4047
HEad  -14.4206 22.4043 -4.36827
LeftShoulder1  1.73151 -2.86102 -20.7974
LeftArm  2.80065 4.84994 -38.7402
LeftForeArm  33.5032 -67.0994 -23.807
LeftHand  0.224664 6.60183 22.0244
RightShoulder  3.47869 5.8939 31.126
RightArm  -6.98519 -8.88582 28.7891
RightForeArm  58.9915 78.2219 58.4246
RightHand  0.0690082 -6.19492 -11.4499
LeftUpLeg  -21.059 5.21609 20.4756
LeftLeg  40.7342 -3.79161 -3.07822
LeftFoot  -5.19411 1.53509 -27.1371
LeftToes  -6.27559e-011 -2.10356e-011 8.24929e-012
31
root  -2.82809 34.6581 19.5505 22.3531 73.6033 23.1164
RightUpLeg  -20.4212 -13.2415 -30.8377
RightLeg  49.5537 10.4801 12.59
RightFoot  -20.4406 1.57687 21.1532
RightToes  -1.74623e-010 0 -2.59999e-017
Spine  5.14268 4.98714 3.17332
Spine1  13.6113 8.5622 -10.8245
HEad  -12.1437 5.97098 2.16395
LeftShoulder1  1.86894 -3.08404 -22.0373
LeftArm  3.06364 5.64839 -40.6872
LeftForeArm  38.9701 -69.9173 -27.5246
LeftHand  0.0946459 5.89449 22.8003
RightShoulder  3.78413 6.11588 33.4547
RightArm  -10.9573 -8.8709 30.0695
RightForeArm  50.2032 76.6197 47.6119
RightHand  0.131316 -6.26231 -20.3856
LeftUpLeg  -20.9894 -2.57603 19.9099
LeftLeg  50.5647 -6.24812 -7.74637
LeftFoot  -7.86044 0.812641 -25.0943
LeftToes  -6.27559e-011 -2.10356e-011 8.24929e-012
32
root  -1.83557 35.2456 17.3743 11.7993 62.2845 12.868
RightUpLeg  -22.1676 -5.35062 -32.063
RightLeg  39.5078 13.9572 11.801
RightFoot  -11.7007 -0.00217304 24.5631
RightToes  -1.74623e-010 0 -2.59999e-017
Spine  3.26712 3.41431 3.16735
Spine1  14.7921 6.27485 -8.35415
HEad  -11.1069 -10.0249 8.41667
LeftShoulder1  2.06085 -3.39636 -23.6226
LeftArm  6.42805 9.00882 -43.0322
LeftForeArm  40.586 -70.7471 -28.8659
LeftHand  -0.00277335 5.39208 24.074
RightShoulder  4.10569 6.33352 35.826
RightArm  -11.0743 -12.9167 28.4073
RightForeArm  55.4776 78.094 59.5034
RightHand  -0.237392 -4.14895 -21.4232
LeftUpLeg  -14.868 -13.0066 18.0615
LeftLeg  50.1706 -12.255 -14.8654
LeftFoot  -12.0732 -0.0515103 -19.1608
LeftToes  -6.27559e-011 -2.10356e-011 8.24929e-012
33
root  -0.54389 36.0346 14.7876 5.04465 46.1072 4.48694
RightUpLeg  -26.6973 2.87716 -30.3158
RightLeg  24.2171 13.2566 6.29174
RightFoot  3.69695 -3.74845 28.5541
RightToes  -1.74623e-010 0 -2.59999e-017
Spine  2.81617 1.91525 4.36376
Spine1  14.8679 3.33965 -3.04899
HEad  -10.758 -24.2645 13.577
LeftShoulder1  2.30692 -3.81703 -25.3485
LeftArm  11.3002 10.9573 -44.8646
LeftForeArm  37.0193 -69.412 -26.9039
LeftHand  -0.254506 4.25948 25.7594
RightShoulder  4.09294 6.31953 35.7545
RightArm  -8.48953 -14.6402 24.402
RightForeArm  55.4442 78.3048 63.1496
RightHand  -0.210462 -4.17664 -19.3293
LeftUpLeg  -5.28244 -18.8404 13.6178
LeftLeg  43.7647 -15.476 -15.0223
LeftFoot  -19.9612 -0.849963 -12.6803
LeftToes  -6.27559e-011 -2.10356e-011 8.24929e-012
34
root  0.387164 36.6024 12.5297 4.86641 30.3122 2.1768
RightUpLeg  -33.7723 3.46277 -25.5624
RightLeg  20.6482 7.1887 2.7156
RightFoot  12.6241 -4.35494 20.7045
RightToes  -1.74623e-010 0 -2.59999e-017
Spine  4.07169 0.017755 -1.35632
Spine1  14.9793 -1.21527 4.54377
HEad  -12.5034 -36.7117 18.4417
LeftShoulder1  2.45814 -4.17492 -25.8783
LeftArm  15.6093 9.46437 -43.3238
LeftForeArm  36.0812 -69.8857 -28.0252
LeftHand  -0.668815 2.4444 26.178
RightShoulder  3.7933 6.06204 33.7695
RightArm  -8.73042 -11.9075 22.1287
RightForeArm  53.7513 78.0899 60.7399
RightHand  -0.296865 -3.78353 -20.5868
LeftUpLeg  0.593472 -9.81093 7.61813
LeftLeg  36.05 -10.1362 -7.56948
LeftFoot  -24.0216 -0.781432 -8.22529
LeftToes  -6.27559e-011 -2.10356e-011 8.24929e-012
35
root  1.0642 36.8517 10.375 7.65454 19.5327 2.37176
RightUpLeg  -41.5923 4.15963 -21.5699
RightLeg  36.9252 1.40188 0.651394
RightFoot  6.78049 -1.9319 12.1533
RightToes  -1.74623e-010 0 -2.59999e-017
Spine  6.09519 -2.63975 -8.97805
Spine1  14.6617 -6.58127 11.0847
HEad  -16.3282 -47.8911 24.5939
LeftShoulder1  2.35652 -4.24287 -24.2066
LeftArm  16.4064 8.52933 -39.2088
LeftForeArm  38.5061 -71.705 -31.4246
LeftHand  -0.73625 2.1268 25.9545
RightShoulder  3.52372 5.76057 32.1532
RightArm  -13.1147 -9.20699 21.8976
RightForeArm  59.5412 78.7171 68.5502
RightHand  -0.360471 -3.69773 -24.1704
LeftUpLeg  0.226675 4.08993 2.26403
LeftLeg  29.5593 -1.89886 -0.845782
LeftFoot  -26.9712 -0.408022 -4.1988
LeftToes  -6.27559e-011 -2.10356e-011 8.24929e-012
36
root  1.66685 36.7082 8.27867 12.1753 11.4276 1.87195
RightUpLeg  -47.0135 6.26939 -17.8597
RightLeg  60.4152 1.76345 2.8795
RightFoot  1.80366 -1.42278 12.4113
RightToes  -1.74623e-010 0 -2.59999e-017
Spine  8.04056 -4.7665 -13.9485
Spine1  13.0602 -10.6133 15.9421
HEad  -20.8027 -55.9638 31.4291
LeftShoulder1  2.24542 -4.35546 -22.2584
LeftArm  14.3662 9.53044 -36.1551
LeftForeArm  31.8035 -68.9559 -27.0002
LeftHand  -0.62246 2.74389 27.0417
RightShoulder  3.41774 5.56739 31.7956
RightArm  -17.607 -8.07758 21.316
RightForeArm  72.8957 79.3123 84.8484
RightHand  -0.185579 -4.60199 -26.5084
LeftUpLeg  -6.70735 10.1867 -2.15833
LeftLeg  29.0328 2.46122 1.85315
LeftFoot  -30.5251 -0.332206 -3.05356
LeftToes  -6.27559e-011 -2.10356e-011 8.24929e-012
